# xmcd
#
# Track frame offsets:
# 150
# 18943
# 38711
# 53333
# 87918
# 105936
# 134969
# 155244
#
# Disc length: 2287 seconds
#
# Revision: 0
# Processed by: cddbd v1.5.2PL0 Copyright (c) Steve Scherf et al.
# Submitted via: Audion 3.0.2 (http://www.panic.com/audion/)
#
DISCID=5e08ed08
DTITLE=Scorpions - Taken by Force
DYEAR=1900
DGENRE=
TTITLE0=Steamrock Fever
TTITLE1=We'll Burn The Sky
TTITLE2=I've Got to Be Free
TTITLE3=The Riot Of Your Time
TTITLE4=The Sails Of Charon
TTITLE5=Your Light
TTITLE6=He's A Woman - She's A Man
TTITLE7=Born To Touch Your Feelings
EXTD=
EXTT0=
EXTT1=
EXTT2=
EXTT3=
EXTT4=
EXTT5=
EXTT6=
EXTT7=
PLAYORDER=
